<svg width="400" height="400" viewBox="0 0 400 400" fill="none" xmlns="http://www.w3.org/2000/svg">
<rect width="400" height="400" rx="20" fill="white"/>
<path d="M321.924 57.825C320.471 56.837 318.803 56.2113 317.059 56.0004C315.315 55.7894 313.545 55.9993 311.899 56.6125L151.999 117.625C145.037 120.275 136.337 121.562 127.399 121.562C114.937 121.587 102.024 119.037 93.0615 115.562C90.3397 114.573 87.7261 113.308 85.2615 111.787C85.9615 111.479 86.7699 111.167 87.6865 110.85L233.099 55.375L254.762 63.55V39.65C254.761 37.8967 254.337 36.1694 253.525 34.6153C252.714 33.0613 251.538 31.7266 250.099 30.725C248.646 29.737 246.978 29.1113 245.234 28.9004C243.49 28.6894 241.72 28.8993 240.074 29.5125L80.1865 90.5C75.2365 92.2875 71.024 94.4125 67.4365 97.5625C63.8865 100.612 60.849 105.625 60.899 111.187C60.899 111.35 60.949 111.587 60.949 111.587V326.412L60.9115 326.662C60.9115 326.75 60.949 326.787 60.949 326.875V327.087H60.974C61.324 334.587 65.599 339.375 69.724 342.775C82.6365 352.812 104.324 358.425 127.387 358.7C138.324 358.7 149.412 357.25 159.687 353.362L319.636 292.337C321.695 291.565 323.467 290.181 324.714 288.371C325.962 286.56 326.624 284.411 326.611 282.212V66.775C326.61 65.0206 326.184 63.2925 325.37 61.7384C324.556 60.1843 323.378 58.8502 321.936 57.85L321.924 57.825ZM70.899 146.7C71.3681 147.784 71.6634 148.936 71.774 150.112L71.8115 150.775C72.0115 154.075 73.4365 155.85 76.349 158.4C86.1365 166.237 106.124 171.9 127.387 172.075C135.553 172.141 143.687 171.029 151.537 168.775V191.15C143.449 192.95 135.287 193.737 127.262 193.737C106.337 193.412 86.4365 189.325 70.8865 180.575L70.899 146.7ZM127.274 307.35C106.337 307 86.4365 302.925 70.899 294.162V260.25C71.3947 261.338 71.691 262.507 71.774 263.7L71.8115 264.362C72.0365 267.687 73.4365 269.45 76.3615 272.012C86.1365 279.825 106.112 285.512 127.387 285.637C135.762 285.637 143.974 284.637 151.537 282.387V304.737C143.559 306.483 135.415 307.355 127.249 307.337L127.274 307.35Z" fill="black"/>
</svg>
