<svg width="3444" height="450" viewBox="0 0 3444 450" fill="none" xmlns="http://www.w3.org/2000/svg">
<rect y="25" width="400" height="400" rx="20" fill="black"/>
<path d="M321.924 82.825C320.471 81.837 318.803 81.2113 317.059 81.0004C315.315 80.7894 313.545 80.9993 311.899 81.6125L151.999 142.625C145.037 145.275 136.337 146.562 127.399 146.562C114.937 146.587 102.024 144.037 93.0615 140.562C90.3397 139.573 87.7261 138.308 85.2615 136.787C85.9615 136.479 86.7699 136.167 87.6865 135.85L233.099 80.375L254.762 88.55V64.65C254.761 62.8967 254.337 61.1694 253.525 59.6153C252.714 58.0613 251.538 56.7266 250.099 55.725C248.646 54.737 246.978 54.1113 245.234 53.9004C243.49 53.6894 241.72 53.8993 240.074 54.5125L80.1865 115.5C75.2365 117.287 71.024 119.412 67.4365 122.562C63.8865 125.612 60.849 130.625 60.899 136.187C60.899 136.35 60.949 136.587 60.949 136.587V351.412L60.9115 351.662C60.9115 351.75 60.949 351.787 60.949 351.875V352.087H60.974C61.324 359.587 65.599 364.375 69.724 367.775C82.6365 377.812 104.324 383.425 127.387 383.7C138.324 383.7 149.412 382.25 159.687 378.362L319.636 317.337C321.695 316.565 323.467 315.181 324.714 313.371C325.962 311.56 326.624 309.411 326.611 307.212V91.775C326.61 90.0206 326.184 88.2925 325.37 86.7384C324.556 85.1843 323.378 83.8502 321.936 82.85L321.924 82.825ZM70.899 171.7C71.3681 172.784 71.6634 173.936 71.774 175.112L71.8115 175.775C72.0115 179.075 73.4365 180.85 76.349 183.4C86.1365 191.237 106.124 196.9 127.387 197.075C135.553 197.141 143.687 196.029 151.537 193.775V216.15C143.449 217.95 135.287 218.737 127.262 218.737C106.337 218.412 86.4365 214.325 70.8865 205.575L70.899 171.7ZM127.274 332.35C106.337 332 86.4365 327.925 70.899 319.162V285.25C71.3947 286.338 71.691 287.507 71.774 288.7L71.8115 289.362C72.0365 292.687 73.4365 294.45 76.3615 297.012C86.1365 304.825 106.112 310.512 127.387 310.637C135.762 310.637 143.974 309.637 151.537 307.387V329.737C143.559 331.483 135.415 332.355 127.249 332.337L127.274 332.35Z" fill="white"/>
<path d="M602.8 221.4C615.2 224.2 625 230.4 632.2 240C639.6 249.4 643.3 260.2 643.3 272.4C643.3 290.4 637.1 304.5 624.7 314.7C612.3 324.9 594.9 330 572.5 330H467.8V118.5H569.2C590.8 118.5 607.7 123.3 619.9 132.9C632.3 142.5 638.5 156 638.5 173.4C638.5 185.8 635.2 196.2 628.6 204.6C622.2 212.8 613.6 218.4 602.8 221.4ZM526.6 202.5H556.3C571.1 202.5 578.5 196.4 578.5 184.2C578.5 171.6 571.1 165.3 556.3 165.3H526.6V202.5ZM560.8 282.6C575.6 282.6 583 276.4 583 264C583 257.6 581 252.7 577 249.3C573.2 245.9 567.7 244.2 560.5 244.2H526.6V282.6H560.8ZM698.77 146.1C688.37 146.1 679.97 143.3 673.57 137.7C667.37 131.9 664.27 124.7 664.27 116.1C664.27 107.3 667.37 100 673.57 94.2C679.97 88.4 688.37 85.5 698.77 85.5C708.97 85.5 717.17 88.4 723.37 94.2C729.77 100 732.97 107.3 732.97 116.1C732.97 124.7 729.77 131.9 723.37 137.7C717.17 143.3 708.97 146.1 698.77 146.1ZM727.87 161.7V330H669.07V161.7H727.87ZM820.155 185.1C824.755 177.1 831.255 170.9 839.655 166.5C848.055 161.9 857.955 159.6 869.355 159.6C882.755 159.6 894.855 163.1 905.655 170.1C916.655 177.1 925.255 187.1 931.455 200.1C937.855 213.1 941.055 228.3 941.055 245.7C941.055 263.1 937.855 278.4 931.455 291.6C925.255 304.6 916.655 314.6 905.655 321.6C894.855 328.6 882.755 332.1 869.355 332.1C857.955 332.1 848.055 329.9 839.655 325.5C831.255 320.9 824.755 314.6 820.155 306.6V330H761.355V108H820.155V185.1ZM881.355 245.7C881.355 234.7 878.355 226.2 872.355 220.2C866.555 214 859.355 210.9 850.755 210.9C842.155 210.9 834.855 214 828.855 220.2C823.055 226.4 820.155 234.9 820.155 245.7C820.155 256.7 823.055 265.3 828.855 271.5C834.855 277.7 842.155 280.8 850.755 280.8C859.355 280.8 866.555 277.7 872.355 271.5C878.355 265.1 881.355 256.5 881.355 245.7ZM1024.06 108V330H965.261V108H1024.06ZM1087.25 146.1C1076.85 146.1 1068.45 143.3 1062.05 137.7C1055.85 131.9 1052.75 124.7 1052.75 116.1C1052.75 107.3 1055.85 100 1062.05 94.2C1068.45 88.4 1076.85 85.5 1087.25 85.5C1097.45 85.5 1105.65 88.4 1111.85 94.2C1118.25 100 1121.45 107.3 1121.45 116.1C1121.45 124.7 1118.25 131.9 1111.85 137.7C1105.65 143.3 1097.45 146.1 1087.25 146.1ZM1116.35 161.7V330H1057.55V161.7H1116.35ZM1228.13 332.1C1211.33 332.1 1196.23 328.6 1182.83 321.6C1169.63 314.6 1159.23 304.6 1151.63 291.6C1144.03 278.6 1140.23 263.3 1140.23 245.7C1140.23 228.3 1144.03 213.1 1151.63 200.1C1159.43 187.1 1169.93 177.1 1183.13 170.1C1196.53 163.1 1211.63 159.6 1228.43 159.6C1245.23 159.6 1260.23 163.1 1273.43 170.1C1286.83 177.1 1297.33 187.1 1304.93 200.1C1312.73 213.1 1316.63 228.3 1316.63 245.7C1316.63 263.1 1312.73 278.4 1304.93 291.6C1297.33 304.6 1286.83 314.6 1273.43 321.6C1260.03 328.6 1244.93 332.1 1228.13 332.1ZM1228.13 281.1C1236.33 281.1 1243.13 278.1 1248.53 272.1C1254.13 265.9 1256.93 257.1 1256.93 245.7C1256.93 234.3 1254.13 225.6 1248.53 219.6C1243.13 213.6 1236.43 210.6 1228.43 210.6C1220.43 210.6 1213.73 213.6 1208.33 219.6C1202.93 225.6 1200.23 234.3 1200.23 245.7C1200.23 257.3 1202.83 266.1 1208.03 272.1C1213.23 278.1 1219.93 281.1 1228.13 281.1ZM1439.85 279.9V330H1414.35C1371.35 330 1349.85 308.7 1349.85 266.1V210.6H1329.15V161.7H1349.85V120.9H1408.95V161.7H1439.55V210.6H1408.95V267C1408.95 271.6 1409.95 274.9 1411.95 276.9C1414.15 278.9 1417.75 279.9 1422.75 279.9H1439.85ZM1627.62 243.9C1627.62 248.5 1627.32 253.1 1626.72 257.7H1515.42C1516.02 266.9 1518.52 273.8 1522.92 278.4C1527.52 282.8 1533.32 285 1540.32 285C1550.12 285 1557.12 280.6 1561.32 271.8H1624.02C1621.42 283.4 1616.32 293.8 1608.72 303C1601.32 312 1591.92 319.1 1580.52 324.3C1569.12 329.5 1556.52 332.1 1542.72 332.1C1526.12 332.1 1511.32 328.6 1498.32 321.6C1485.52 314.6 1475.42 304.6 1468.02 291.6C1460.82 278.6 1457.22 263.3 1457.22 245.7C1457.22 228.1 1460.82 212.9 1468.02 200.1C1475.22 187.1 1485.22 177.1 1498.02 170.1C1511.02 163.1 1525.92 159.6 1542.72 159.6C1559.32 159.6 1574.02 163 1586.82 169.8C1599.62 176.6 1609.62 186.4 1616.82 199.2C1624.02 211.8 1627.62 226.7 1627.62 243.9ZM1567.62 229.2C1567.62 222 1565.22 216.4 1560.42 212.4C1555.62 208.2 1549.62 206.1 1542.42 206.1C1535.22 206.1 1529.32 208.1 1524.72 212.1C1520.12 215.9 1517.12 221.6 1515.72 229.2H1567.62ZM1642.09 245.7C1642.09 228.3 1645.69 213.1 1652.89 200.1C1660.09 187.1 1670.09 177.1 1682.89 170.1C1695.89 163.1 1710.69 159.6 1727.29 159.6C1748.69 159.6 1766.69 165.5 1781.29 177.3C1795.89 188.9 1805.29 205.2 1809.49 226.2H1747.09C1743.49 215.2 1736.49 209.7 1726.09 209.7C1718.69 209.7 1712.79 212.8 1708.39 219C1704.19 225 1702.09 233.9 1702.09 245.7C1702.09 257.5 1704.19 266.5 1708.39 272.7C1712.79 278.9 1718.69 282 1726.09 282C1736.69 282 1743.69 276.5 1747.09 265.5H1809.49C1805.29 286.3 1795.89 302.6 1781.29 314.4C1766.69 326.2 1748.69 332.1 1727.29 332.1C1710.69 332.1 1695.89 328.6 1682.89 321.6C1670.09 314.6 1660.09 304.6 1652.89 291.6C1645.69 278.6 1642.09 263.3 1642.09 245.7ZM1824.31 245.7C1824.31 228.3 1827.41 213.1 1833.61 200.1C1840.01 187.1 1848.61 177.1 1859.41 170.1C1870.41 163.1 1882.61 159.6 1896.01 159.6C1907.61 159.6 1917.61 161.9 1926.01 166.5C1934.41 171.1 1940.91 177.3 1945.51 185.1V161.7H2004.31V330H1945.51V306.6C1940.91 314.4 1934.31 320.6 1925.71 325.2C1917.31 329.8 1907.41 332.1 1896.01 332.1C1882.61 332.1 1870.41 328.6 1859.41 321.6C1848.61 314.6 1840.01 304.6 1833.61 291.6C1827.41 278.4 1824.31 263.1 1824.31 245.7ZM1945.51 245.7C1945.51 234.9 1942.51 226.4 1936.51 220.2C1930.71 214 1923.51 210.9 1914.91 210.9C1906.11 210.9 1898.81 214 1893.01 220.2C1887.21 226.2 1884.31 234.7 1884.31 245.7C1884.31 256.5 1887.21 265.1 1893.01 271.5C1898.81 277.7 1906.11 280.8 1914.91 280.8C1923.51 280.8 1930.71 277.7 1936.51 271.5C1942.51 265.3 1945.51 256.7 1945.51 245.7ZM2085.64 245.7C2085.64 228.3 2088.74 213.1 2094.94 200.1C2101.34 187.1 2110.04 177.1 2121.04 170.1C2132.04 163.1 2144.24 159.6 2157.64 159.6C2168.44 159.6 2178.04 161.9 2186.44 166.5C2195.04 170.9 2201.74 177 2206.54 184.8V108H2265.64V330H2206.54V306.6C2201.94 314.4 2195.44 320.6 2187.04 325.2C2178.64 329.8 2168.74 332.1 2157.34 332.1C2143.94 332.1 2131.74 328.6 2120.74 321.6C2109.94 314.6 2101.34 304.6 2094.94 291.6C2088.74 278.4 2085.64 263.1 2085.64 245.7ZM2206.84 245.7C2206.84 234.9 2203.84 226.4 2197.84 220.2C2192.04 214 2184.84 210.9 2176.24 210.9C2167.44 210.9 2160.14 214 2154.34 220.2C2148.54 226.2 2145.64 234.7 2145.64 245.7C2145.64 256.5 2148.54 265.1 2154.34 271.5C2160.14 277.7 2167.44 280.8 2176.24 280.8C2184.84 280.8 2192.04 277.7 2197.84 271.5C2203.84 265.3 2206.84 256.7 2206.84 245.7ZM2377.45 332.1C2360.65 332.1 2345.55 328.6 2332.15 321.6C2318.95 314.6 2308.55 304.6 2300.95 291.6C2293.35 278.6 2289.55 263.3 2289.55 245.7C2289.55 228.3 2293.35 213.1 2300.95 200.1C2308.75 187.1 2319.25 177.1 2332.45 170.1C2345.85 163.1 2360.95 159.6 2377.75 159.6C2394.55 159.6 2409.55 163.1 2422.75 170.1C2436.15 177.1 2446.65 187.1 2454.25 200.1C2462.05 213.1 2465.95 228.3 2465.95 245.7C2465.95 263.1 2462.05 278.4 2454.25 291.6C2446.65 304.6 2436.15 314.6 2422.75 321.6C2409.35 328.6 2394.25 332.1 2377.45 332.1ZM2377.45 281.1C2385.65 281.1 2392.45 278.1 2397.85 272.1C2403.45 265.9 2406.25 257.1 2406.25 245.7C2406.25 234.3 2403.45 225.6 2397.85 219.6C2392.45 213.6 2385.75 210.6 2377.75 210.6C2369.75 210.6 2363.05 213.6 2357.65 219.6C2352.25 225.6 2349.55 234.3 2349.55 245.7C2349.55 257.3 2352.15 266.1 2357.35 272.1C2362.55 278.1 2369.25 281.1 2377.45 281.1ZM2627.09 332.1C2602.49 332.1 2582.29 326.3 2566.49 314.7C2550.69 302.9 2542.19 286.1 2540.99 264.3H2603.69C2604.29 271.7 2606.49 277.1 2610.29 280.5C2614.09 283.9 2618.99 285.6 2624.99 285.6C2630.39 285.6 2634.79 284.3 2638.19 281.7C2641.79 278.9 2643.59 275.1 2643.59 270.3C2643.59 264.1 2640.69 259.3 2634.89 255.9C2629.09 252.5 2619.69 248.7 2606.69 244.5C2592.89 239.9 2581.69 235.5 2573.09 231.3C2564.69 226.9 2557.29 220.6 2550.89 212.4C2544.69 204 2541.59 193.1 2541.59 179.7C2541.59 166.1 2544.99 154.5 2551.79 144.9C2558.59 135.1 2567.99 127.7 2579.99 122.7C2591.99 117.7 2605.59 115.2 2620.79 115.2C2645.39 115.2 2664.99 121 2679.59 132.6C2694.39 144 2702.29 160.1 2703.29 180.9H2639.39C2639.19 174.5 2637.19 169.7 2633.39 166.5C2629.79 163.3 2625.09 161.7 2619.29 161.7C2614.89 161.7 2611.29 163 2608.49 165.6C2605.69 168.2 2604.29 171.9 2604.29 176.7C2604.29 180.7 2605.79 184.2 2608.79 187.2C2611.99 190 2615.89 192.5 2620.49 194.7C2625.09 196.7 2631.89 199.3 2640.89 202.5C2654.29 207.1 2665.29 211.7 2673.89 216.3C2682.69 220.7 2690.19 227 2696.39 235.2C2702.79 243.2 2705.99 253.4 2705.99 265.8C2705.99 278.4 2702.79 289.7 2696.39 299.7C2690.19 309.7 2681.09 317.6 2669.09 323.4C2657.29 329.2 2643.29 332.1 2627.09 332.1ZM2723.73 245.7C2723.73 228.3 2726.83 213.1 2733.03 200.1C2739.43 187.1 2748.03 177.1 2758.83 170.1C2769.83 163.1 2782.03 159.6 2795.43 159.6C2807.03 159.6 2817.03 161.9 2825.43 166.5C2833.83 171.1 2840.33 177.3 2844.93 185.1V161.7H2903.73V330H2844.93V306.6C2840.33 314.4 2833.73 320.6 2825.13 325.2C2816.73 329.8 2806.83 332.1 2795.43 332.1C2782.03 332.1 2769.83 328.6 2758.83 321.6C2748.03 314.6 2739.43 304.6 2733.03 291.6C2726.83 278.4 2723.73 263.1 2723.73 245.7ZM2844.93 245.7C2844.93 234.9 2841.93 226.4 2835.93 220.2C2830.13 214 2822.93 210.9 2814.33 210.9C2805.53 210.9 2798.23 214 2792.43 220.2C2786.63 226.2 2783.73 234.7 2783.73 245.7C2783.73 256.5 2786.63 265.1 2792.43 271.5C2798.23 277.7 2805.53 280.8 2814.33 280.8C2822.93 280.8 2830.13 277.7 2835.93 271.5C2841.93 265.3 2844.93 256.7 2844.93 245.7ZM2996.03 185.1C3000.63 177.1 3007.13 170.9 3015.53 166.5C3023.93 161.9 3033.83 159.6 3045.23 159.6C3058.63 159.6 3070.73 163.1 3081.53 170.1C3092.53 177.1 3101.13 187.1 3107.33 200.1C3113.73 213.1 3116.93 228.3 3116.93 245.7C3116.93 263.1 3113.73 278.4 3107.33 291.6C3101.13 304.6 3092.53 314.6 3081.53 321.6C3070.73 328.6 3058.63 332.1 3045.23 332.1C3033.83 332.1 3023.93 329.9 3015.53 325.5C3007.13 320.9 3000.63 314.6 2996.03 306.6V330H2937.23V108H2996.03V185.1ZM3057.23 245.7C3057.23 234.7 3054.23 226.2 3048.23 220.2C3042.43 214 3035.23 210.9 3026.63 210.9C3018.03 210.9 3010.73 214 3004.73 220.2C2998.93 226.4 2996.03 234.9 2996.03 245.7C2996.03 256.7 2998.93 265.3 3004.73 271.5C3010.73 277.7 3018.03 280.8 3026.63 280.8C3035.23 280.8 3042.43 277.7 3048.23 271.5C3054.23 265.1 3057.23 256.5 3057.23 245.7ZM3301.94 243.9C3301.94 248.5 3301.64 253.1 3301.04 257.7H3189.74C3190.34 266.9 3192.84 273.8 3197.24 278.4C3201.84 282.8 3207.64 285 3214.64 285C3224.44 285 3231.44 280.6 3235.64 271.8H3298.34C3295.74 283.4 3290.64 293.8 3283.04 303C3275.64 312 3266.24 319.1 3254.84 324.3C3243.44 329.5 3230.84 332.1 3217.04 332.1C3200.44 332.1 3185.64 328.6 3172.64 321.6C3159.84 314.6 3149.74 304.6 3142.34 291.6C3135.14 278.6 3131.54 263.3 3131.54 245.7C3131.54 228.1 3135.14 212.9 3142.34 200.1C3149.54 187.1 3159.54 177.1 3172.34 170.1C3185.34 163.1 3200.24 159.6 3217.04 159.6C3233.64 159.6 3248.34 163 3261.14 169.8C3273.94 176.6 3283.94 186.4 3291.14 199.2C3298.34 211.8 3301.94 226.7 3301.94 243.9ZM3241.94 229.2C3241.94 222 3239.54 216.4 3234.74 212.4C3229.94 208.2 3223.94 206.1 3216.74 206.1C3209.54 206.1 3203.64 208.1 3199.04 212.1C3194.44 215.9 3191.44 221.6 3190.04 229.2H3241.94ZM3384.8 191.4C3391.4 181.8 3399.4 174.2 3408.8 168.6C3418.2 163 3428.3 160.2 3439.1 160.2V222.9H3422.6C3409.8 222.9 3400.3 225.4 3394.1 230.4C3387.9 235.4 3384.8 244.1 3384.8 256.5V330H3326V161.7H3384.8V191.4Z" fill="black"/>
</svg>
