<svg width="50" height="50" viewBox="0 0 50 50" fill="none" xmlns="http://www.w3.org/2000/svg">
<circle cx="25" cy="25" r="25" fill="#FDFDFD"/>
<path d="M24.9993 13.6665C26.5022 13.6665 27.9436 14.2635 29.0063 15.3262C30.069 16.3889 30.666 17.8303 30.666 19.3332C30.666 20.8361 30.069 22.2774 29.0063 23.3401C27.9436 24.4028 26.5022 24.9998 24.9993 24.9998C23.4965 24.9998 22.0551 24.4028 20.9924 23.3401C19.9297 22.2774 19.3327 20.8361 19.3327 19.3332C19.3327 17.8303 19.9297 16.3889 20.9924 15.3262C22.0551 14.2635 23.4965 13.6665 24.9993 13.6665ZM24.9993 27.8332C31.261 27.8332 36.3327 30.369 36.3327 33.4998V36.3332H13.666V33.4998C13.666 30.369 18.7377 27.8332 24.9993 27.8332Z" fill="black"/>
</svg>
